<?xml version="1.0" standalone="no"?>
<!DOCTYPE svg PUBLIC "-//W3C//DTD SVG 20010904//EN"
 "http://www.w3.org/TR/2001/REC-SVG-20010904/DTD/svg10.dtd">
<svg version="1.0" xmlns="http://www.w3.org/2000/svg"
 width="360.000000pt" height="360.000000pt" viewBox="0 0 360.000000 360.000000"
 preserveAspectRatio="xMidYMid meet">
<metadata>
Created by potrace 1.14, written by Peter Selinger 2001-2017
</metadata>
<g transform="translate(0.000000,360.000000) scale(0.100000,-0.100000)"
fill="#000000" stroke="none">
<path d="M865 3101 c-31 -19 -154 -137 -192 -183 -46 -56 -121 -175 -138 -218
-20 -51 -22 -141 -6 -213 11 -49 44 -121 58 -130 5 -3 27 23 50 57 40 56 42
64 33 96 -23 80 -9 143 51 232 46 68 61 87 115 145 l42 44 21 -27 c11 -14 49
-58 83 -97 70 -78 73 -81 143 -162 28 -32 59 -67 71 -79 11 -12 52 -57 90
-101 38 -44 71 -82 74 -85 3 -3 39 -43 80 -90 41 -47 77 -87 80 -90 3 -3 34
-39 70 -80 35 -41 67 -77 70 -80 3 -3 30 -34 60 -69 30 -35 65 -74 77 -86 l21
-22 55 61 c31 34 65 72 77 86 20 24 76 88 184 210 83 93 118 134 186 210 36
40 73 82 83 94 29 33 121 138 132 150 6 6 57 64 114 129 57 64 107 117 111
117 29 0 180 -202 203 -270 19 -56 13 -128 -14 -189 l-20 -46 -20 25 c-11 14
-54 60 -95 102 l-76 77 -37 -42 c-20 -23 -47 -55 -61 -71 -14 -16 -32 -37 -40
-46 -8 -9 -42 -47 -75 -85 -33 -39 -62 -72 -65 -75 -3 -3 -32 -36 -65 -75 -33
-38 -64 -75 -70 -81 -5 -6 -30 -34 -55 -63 -25 -29 -56 -65 -70 -81 -14 -15
-47 -53 -75 -86 -27 -32 -59 -68 -70 -80 -11 -12 -29 -33 -39 -46 -11 -13 -52
-61 -93 -107 l-73 -83 47 -55 46 -54 41 48 c69 80 256 294 316 363 32 36 120
137 196 225 76 88 143 165 149 171 5 6 30 34 54 63 l45 53 31 -34 c49 -51 125
-158 152 -213 27 -54 39 -160 21 -182 -6 -7 -7 -13 -4 -13 12 0 -64 -134 -97
-171 -17 -20 -43 -51 -57 -68 -20 -27 -139 -179 -170 -218 -33 -41 -114 -200
-132 -258 -29 -94 -29 -197 0 -292 12 -39 29 -79 38 -88 9 -9 13 -19 9 -23
-19 -18 -136 154 -159 233 -5 18 -18 124 -19 150 -2 91 40 234 100 345 56 101
229 341 304 420 8 8 36 41 63 73 46 56 48 60 35 85 -27 53 -54 92 -64 91 -5 0
-71 -74 -145 -165 -74 -90 -141 -171 -147 -178 -32 -36 -147 -214 -180 -279
-38 -74 -80 -182 -88 -227 -36 -198 -13 -356 72 -502 73 -125 197 -224 334
-268 93 -30 247 -32 354 -5 129 32 258 117 335 220 24 33 66 116 85 170 9 28
20 57 23 65 3 8 6 20 6 25 1 6 6 35 10 65 20 123 1 252 -54 361 -26 51 -92
142 -133 182 -33 32 -107 87 -117 87 -4 0 -22 -24 -41 -52 -18 -29 -73 -109
-121 -177 l-87 -124 48 -48 c115 -114 167 -310 117 -435 -46 -112 -202 -163
-321 -104 -112 56 -167 200 -128 335 26 89 118 248 203 348 171 205 213 263
247 348 48 118 39 237 -27 356 l-29 51 27 39 c84 117 104 282 48 393 -58 115
-214 301 -306 365 l-39 27 -33 -38 c-43 -48 -52 -59 -120 -135 -31 -35 -66
-75 -78 -89 -12 -14 -45 -52 -74 -85 -29 -33 -89 -100 -132 -150 -122 -139
-138 -157 -159 -179 -11 -12 -65 -73 -120 -136 -55 -63 -112 -128 -127 -145
-15 -16 -38 -43 -53 -60 l-26 -30 -37 41 c-20 22 -95 107 -167 189 -71 81
-143 162 -159 179 -16 17 -45 51 -65 76 -20 24 -46 54 -57 65 -12 11 -57 61
-100 110 -43 50 -80 92 -83 95 -3 3 -33 37 -66 75 -33 39 -76 88 -96 110 -20
22 -49 55 -65 73 l-29 32 -30 -19z m2346 -1533 c47 -56 89 -147 104 -223 18
-94 -7 -240 -60 -348 -34 -70 -60 -97 -43 -45 15 47 17 173 2 238 -18 86 -40
139 -90 218 -19 29 -34 55 -34 58 0 11 84 124 93 124 5 0 17 -10 28 -22z"/>
<path d="M817 2536 c-38 -41 -87 -98 -108 -128 -22 -29 -47 -61 -55 -71 -7 -9
-14 -20 -14 -23 0 -3 -12 -21 -26 -39 -36 -48 -75 -167 -75 -229 1 -116 44
-215 155 -351 207 -253 294 -387 324 -497 19 -70 19 -72 8 -143 -38 -241 -323
-304 -452 -101 -14 22 -19 50 -20 115 -2 130 40 232 132 328 24 26 44 48 44
51 0 4 -122 185 -130 192 -3 3 -28 38 -55 78 -27 41 -53 76 -58 79 -14 8 -114
-74 -166 -137 -149 -179 -185 -403 -102 -641 93 -269 311 -418 606 -413 116 2
203 26 293 79 67 41 166 134 189 179 9 17 19 33 22 36 13 10 60 118 67 155 2
11 8 42 13 68 11 63 7 220 -9 277 -35 129 -87 241 -167 360 -26 39 -52 79 -58
88 -12 18 -17 24 -123 157 -45 55 -93 114 -107 130 -15 17 -43 50 -63 74 -21
24 -47 54 -60 68 -22 24 -22 25 -3 51 11 15 33 40 49 55 25 24 31 26 38 14 9
-14 70 -87 117 -137 13 -14 52 -59 88 -100 35 -41 69 -80 74 -86 6 -6 33 -37
60 -69 28 -32 55 -63 61 -69 5 -6 68 -78 139 -161 71 -82 132 -152 135 -155 3
-3 34 -39 70 -80 36 -41 67 -77 70 -80 3 -3 59 -68 125 -145 66 -76 128 -147
138 -157 15 -16 16 -22 5 -41 -29 -50 -163 -247 -170 -247 -9 0 -169 238 -174
259 -2 9 14 36 37 61 23 25 56 61 74 81 l33 36 -49 54 -48 54 -26 -30 c-14
-16 -48 -55 -74 -85 -93 -106 -131 -151 -131 -157 0 -3 61 -95 135 -204 74
-110 135 -203 135 -208 0 -5 4 -11 8 -13 5 -2 24 -27 44 -55 l35 -53 99 148
c54 81 101 149 104 152 3 3 32 46 65 95 33 50 62 92 66 95 3 3 11 14 16 25 12
20 7 29 -71 115 -17 20 -58 67 -91 105 -33 39 -62 72 -65 75 -5 5 -163 187
-211 244 -13 16 -35 41 -49 56 -14 15 -61 70 -105 121 -44 51 -116 134 -160
184 -44 50 -105 120 -135 155 -30 35 -75 87 -100 115 -25 28 -65 74 -90 104
-25 29 -58 67 -73 84 -16 18 -47 53 -70 80 -22 26 -46 47 -51 47 -6 -1 -42
-34 -79 -74z m-32 -432 c17 -19 58 -67 110 -129 27 -33 52 -62 55 -65 16 -15
108 -139 155 -210 110 -164 163 -301 169 -443 5 -98 -9 -168 -49 -252 -29 -60
-111 -165 -129 -165 -3 0 7 24 23 53 111 206 55 428 -187 732 -31 39 -59 72
-62 75 -3 3 -30 37 -60 75 -30 39 -57 72 -60 75 -3 3 -18 30 -34 60 -33 65
-44 150 -26 206 20 63 28 68 58 31 15 -18 31 -37 37 -43z m-280 -575 c25 -34
41 -67 38 -73 -4 -6 -21 -33 -38 -61 -36 -57 -70 -140 -84 -203 -13 -62 -11
-189 5 -241 12 -42 12 -44 -2 -26 -9 11 -28 45 -44 75 -83 163 -86 351 -7 489
28 48 78 113 84 107 2 -2 24 -32 48 -67z"/>
</g>
</svg>
